Coordinates
version=1
nRows=33
nColumns=30
inDegrees=yes

Units are S.I. units (second, meters, Newtons, ...)
Angles are in degrees.

endheader
time	floatyaw	floatroll	floatpitch	floatx	floaty	floatz	pro_sup_l	deviation_l	flexion_l	cmc_flexion_l	cmc_abduction_l	mp_flexion_l	ip_flexion_l	2mcp_flexion_l	2mcp_abduction_l	2pm_flexion_l	2md_flexion_l	3mcp_flexion_l	3mcp_abduction_l	3pm_flexion_l	3md_flexion_l	4mcp_flexion_l	4mcp_abduction_l	4pm_flexion_l	4md_flexion_l	5mcp_flexion_l	5mcp_abduction_l	5pm_flexion_l	5md_flexion_l
-0.495000	-160.147433	-5.066637	-73.570646	0.076696	-0.178365	-0.020699	102.183827	6.416915	-1.292581	15.075841	13.804440	-25.083292	-41.844208	28.787904	6.741233	43.708753	29.749222	22.944109	4.210245	44.948066	29.688308	12.256496	-4.206297	52.316059	36.021243	0.426885	-8.253791	61.354355	42.873157
-0.485000	-160.147433	-5.066637	-73.570646	0.076007	-0.178187	-0.020977	102.279291	6.494607	-1.236909	15.055743	13.873997	-25.069041	-41.899728	28.522457	6.727674	43.713795	29.816117	23.003613	4.228569	44.900709	29.661783	12.366740	-4.198579	52.248942	35.957651	0.428522	-8.279364	61.423865	42.880233
-0.475000	-160.147433	-5.066637	-73.570646	0.075301	-0.177976	-0.021265	102.400265	6.579274	-1.170839	15.001242	13.894385	-25.098511	-41.967747	28.290000	6.745946	43.790167	29.976161	23.308030	4.244759	44.876991	29.636398	12.746625	-4.201680	52.136819	35.871061	0.589838	-8.334073	61.494326	42.939623
-0.465000	-160.147433	-5.066637	-73.570646	0.074622	-0.177721	-0.021555	102.534490	6.673665	-1.134469	14.932419	13.870036	-25.174692	-42.039364	28.114600	6.802145	43.959310	30.232689	23.828573	4.255902	44.887738	29.631035	13.368858	-4.220995	52.000636	35.789447	0.906310	-8.399046	61.539504	43.056055
-0.455000	-160.147433	-5.066637	-73.570646	0.074014	-0.177432	-0.021832	102.658815	6.778885	-1.150688	14.862357	13.827299	-25.289161	-42.111868	28.019506	6.890274	44.205773	30.546115	24.451759	4.262398	44.943438	29.671783	14.107987	-4.254546	51.888794	35.759214	1.321340	-8.457272	61.553640	43.226080
-0.445000	-160.147433	-5.066637	-73.570646	0.073494	-0.177133	-0.022079	102.745578	6.894227	-1.217409	14.786232	13.808820	-25.419462	-42.183132	28.026144	6.992269	44.480202	30.843687	25.018789	4.268346	45.056164	29.783746	14.783900	-4.293357	51.868572	35.830863	1.751830	-8.501230	61.556978	43.436261
-0.435000	-160.147433	-5.066637	-73.570646	0.073054	-0.176848	-0.022289	102.774257	7.015656	-1.310597	14.685529	13.855638	-25.534318	-42.246602	28.144753	7.084443	44.716548	31.048607	25.390089	4.278686	45.231442	29.976359	15.236387	-4.325574	51.993345	36.031921	2.121562	-8.533518	61.580107	43.662426
-0.425000	-160.147433	-5.066637	-73.570646	0.072664	-0.176596	-0.022468	102.743591	7.134289	-1.395957	14.546249	13.985492	-25.604685	-42.291859	28.363668	7.147375	44.855097	31.113355	25.500872	4.294927	45.454731	30.231321	15.390467	-4.342026	52.263518	36.343912	2.383074	-8.560961	61.639026	43.873704
-0.415000	-160.147433	-5.066637	-73.570646	0.072288	-0.176381	-0.022627	102.676386	7.237445	-1.443007	14.376787	14.182004	-25.614200	-42.310986	28.647577	7.173672	44.862297	31.039228	25.378530	4.313259	45.686668	30.504222	15.277312	-4.340157	52.612974	36.703056	2.521336	-8.587890	61.722745	44.042879
-0.405000	-160.147433	-5.066637	-73.570646	0.071900	-0.176196	-0.022785	102.612215	7.313101	-1.435004	14.210393	14.403141	-25.563637	-42.306406	28.947698	7.169551	44.741664	30.873767	25.117084	4.327049	45.875952	30.742013	15.004539	-4.324524	52.937257	37.028487	2.545895	-8.614089	61.804013	44.158899
-0.395000	-160.147433	-5.066637	-73.570646	0.071496	-0.176033	-0.022953	102.591022	7.355366	-1.371588	14.089489	14.603126	-25.468720	-42.294631	29.217173	7.150533	44.533383	30.690851	24.828133	4.331967	45.983934	30.906739	14.699081	-4.304261	53.147966	37.261133	2.481001	-8.637939	61.863163	44.233795
-0.385000	-160.147433	-5.066637	-73.570646	0.071086	-0.175886	-0.023140	102.636371	7.367238	-1.265106	14.042812	14.753031	-25.354044	-42.302744	29.422728	7.134748	44.302457	30.564700	24.595966	4.329851	46.005217	30.991921	14.455480	-4.289304	53.218766	37.389643	2.358033	-8.660824	61.904916	44.299016
-0.375000	-160.147433	-5.066637	-73.570646	0.070693	-0.175753	-0.023343	102.746870	7.358593	-1.133708	14.070158	14.848607	-25.246292	-42.358646	29.549088	7.137060	44.117668	30.547678	24.456017	4.328569	45.970923	31.023547	14.311955	-4.287223	53.195371	37.450312	2.209848	-8.688560	61.955545	44.392732
-0.365000	-160.147433	-5.066637	-73.570646	0.070341	-0.175631	-0.023558	102.899681	7.340762	-0.994288	14.142701	14.904131	-25.168372	-42.479491	29.598446	7.165262	44.027678	30.657594	24.400288	4.337967	45.932307	31.046712	14.257922	-4.301514	53.165747	37.504520	2.066137	-8.728554	62.044210	44.544508
-0.355000	-160.147433	-5.066637	-73.570646	0.070048	-0.175511	-0.023787	103.064536	7.321337	-0.857395	14.216626	14.939338	-25.134904	-42.663628	29.588051	7.218475	44.044394	30.876612	24.400270	4.364349	45.934358	31.105596	14.261453	-4.331341	53.210120	37.608035	1.950072	-8.784887	62.183307	44.764022
-0.345000	-160.147433	-5.066637	-73.570646	0.069813	-0.175376	-0.024038	103.221535	7.302493	-0.725105	14.251675	14.968273	-25.149545	-42.890048	29.546133	7.288133	44.142474	31.160701	24.432031	4.406586	45.994491	31.225857	14.298440	-4.372334	53.359668	37.787217	1.876799	-8.854943	62.360727	45.037347
-0.335000	-160.147433	-5.066637	-73.570646	0.069622	-0.175201	-0.024337	103.373372	7.283655	-0.591420	14.226133	14.995224	-25.205368	-43.126298	29.504892	7.361605	44.275558	31.455580	24.490539	4.455884	46.097048	31.405689	14.368101	-4.418025	53.584537	38.030729	1.853647	-8.929901	62.546510	45.331178
-0.325000	-160.147433	-5.066637	-73.570646	0.069445	-0.174955	-0.024720	103.544959	7.266871	-0.444080	14.143023	15.017678	-25.289178	-43.341915	29.491312	7.427147	44.399648	31.713268	24.588462	4.499330	46.203754	31.617463	14.489561	-4.461483	53.813031	38.297070	1.881596	-8.998683	62.707402	45.603267
-0.315000	-160.147433	-5.066637	-73.570646	0.069245	-0.174604	-0.025230	103.770475	7.262332	-0.267359	14.026178	15.032613	-25.388484	-43.521179	29.519483	7.477863	44.490386	31.903612	24.743991	4.525438	46.271826	31.818200	14.685857	-4.496727	53.967043	38.532475	1.957533	-9.052768	62.820666	45.815609
-0.305000	-160.147433	-5.066637	-73.570646	0.068984	-0.174113	-0.025906	104.074303	7.291766	-0.046837	13.908321	15.041604	-25.497501	-43.668424	29.588163	7.512831	44.546697	32.017727	24.967292	4.528953	46.270304	31.964938	14.967765	-4.519603	53.993929	38.691417	2.076480	-9.088822	62.881065	45.945628
-0.295000	-160.147433	-5.066637	-73.570646	0.068620	-0.173450	-0.026780	104.454248	7.388207	0.222623	13.816096	15.051455	-25.618356	-43.802416	29.684141	7.535284	44.582969	32.064068	25.253428	4.512671	46.189880	32.030045	15.327288	-4.528029	53.882001	38.752367	2.232774	-9.107439	62.899334	45.991348
-0.285000	-160.147433	-5.066637	-73.570646	0.068105	-0.172585	-0.027869	104.873533	7.591590	0.526868	13.758011	15.069901	-25.756610	-43.942068	29.788478	7.549390	44.617580	32.060465	25.583380	4.485685	46.045940	32.011086	15.742310	-4.521587	53.658062	38.723296	2.419533	-9.109021	62.894765	45.969274
-0.275000	-160.147433	-5.066637	-73.570646	0.067380	-0.171493	-0.029185	105.264770	7.940727	0.825302	13.719647	15.099420	-25.914078	-44.090768	29.881620	7.557432	44.664218	32.025682	25.929476	4.459182	45.874519	31.930514	16.186653	-4.500661	53.372215	38.634614	2.626672	-9.090159	62.886254	45.906436
-0.265000	-160.147433	-5.066637	-73.570646	0.066377	-0.170156	-0.030732	105.545363	8.463282	1.052740	13.667246	15.134355	-26.083577	-44.227977	29.945733	7.558430	44.727549	31.972783	26.261152	4.441793	45.719285	31.823741	16.638382	-4.465623	53.075875	38.522065	2.839182	-9.043641	62.883897	45.829237
-0.255000	-160.147433	-5.066637	-73.570646	0.065021	-0.168555	-0.032513	105.640131	9.166539	1.132272	13.557897	15.165647	-26.248542	-44.313402	29.966084	7.548381	44.801069	31.905399	26.550433	4.436216	45.610268	31.720132	17.083503	-4.416717	52.798227	38.407594	3.039368	-8.962472	62.880120	45.752165
-0.245000	-160.147433	-5.066637	-73.570646	0.063244	-0.166666	-0.034528	105.504817	10.032896	0.994024	13.352912	15.193575	-26.387307	-44.302920	29.934496	7.521991	44.865174	31.817386	26.778771	4.438180	45.542598	31.626695	17.516976	-4.354873	52.528201	38.288758	3.216679	-8.845532	62.840747	45.670027
-0.235000	-160.147433	-5.066637	-73.570646	0.061003	-0.164461	-0.036773	105.144071	11.024245	0.590047	13.030124	15.244265	-26.479482	-44.169595	29.854907	7.475416	44.887090	31.696136	26.944735	4.438083	45.469288	31.524262	17.943864	-4.282925	52.211341	38.143382	3.383693	-8.701900	62.702457	45.557536
-0.225000	-160.147433	-5.066637	-73.570646	0.058278	-0.161909	-0.039233	104.618617	12.096859	-0.102887	12.591108	15.381892	-26.511272	-43.920005	29.746812	7.408935	44.827587	31.529356	27.067838	4.424952	45.318634	31.379510	18.380415	-4.206344	51.768590	37.946753	3.588401	-8.552031	62.386898	45.378668
-0.215000	-160.147433	-5.066637	-73.570646	0.055067	-0.158974	-0.041885	104.037463	13.222396	-1.093706	12.061313	15.706868	-26.476996	-43.596597	29.641643	7.328234	44.657400	31.313679	27.182854	4.391517	45.033505	31.166989	18.851209	-4.132751	51.135240	37.690650	3.908929	-8.425104	61.835747	45.104573
-0.205000	-160.147433	-5.066637	-73.570646	0.051367	-0.155623	-0.044710	103.534177	14.403981	-2.393276	11.484610	16.333467	-26.374819	-43.260992	29.571217	7.243381	44.378338	31.061312	27.323438	4.338323	44.613822	30.889230	19.378252	-4.070041	50.305780	37.393088	4.424070	-8.352131	61.054983	44.733773
-0.195000	-160.147433	-5.066637	-73.570646	0.047151	-0.151844	-0.047697	103.232993	15.674965	-4.024172	10.916776	17.350562	-26.196291	-42.961465	29.552141	7.165158	44.035824	30.800194	27.500482	4.274476	44.135863	30.583618	19.962766	-4.023813	49.360414	37.094362	5.168997	-8.354783	60.140654	44.303989
-0.185000	-160.147433	-5.066637	-73.570646	0.042382	-0.147671	-0.050841	103.217912	17.075745	-6.013977	10.422401	18.782129	-25.913345	-42.698631	29.570669	7.098992	43.709882	30.565590	27.683969	4.213531	43.729955	30.310917	20.566758	-3.995442	48.450594	36.842184	6.098575	-8.431642	59.258413	43.884787
-0.175000	-160.147433	-5.066637	-73.570646	0.037027	-0.143220	-0.054120	103.519441	18.617618	-8.370853	10.076321	20.569784	-25.471520	-42.410812	29.569138	7.037667	43.482925	30.385717	27.795099	4.165463	43.519742	30.128751	21.103414	-3.981698	47.739330	36.671734	7.079248	-8.547216	58.573481	43.547645
